<?xml version="1.0" encoding="UTF-8"?>
<svg width="24" height="24" viewBox="0 0 24 24" fill="none" xmlns="http://www.w3.org/2000/svg">
  <path d="M12 6.5C12 5.4 12.9 4.5 14 4.5C15.1 4.5 16 5.4 16 6.5C16 7.6 15.1 8.5 14 8.5C12.9 8.5 12 7.6 12 6.5ZM20 6.5C20 3.5 17.4 1 14.3 1C11.2 1 9 3.5 9 6.5C9 9.5 11.2 12 14.3 12C17.4 12 20 9.5 20 6.5ZM16.8 13H11.2C8.3 13 6 15.3 6 18.2V23H22V18.2C22 15.3 19.7 13 16.8 13Z" stroke="#00ff9d" stroke-width="2" stroke-linecap="round" stroke-linejoin="round"/>
</svg>
